<?xml version="1.0" encoding="UTF-8" standalone="no"?>
<!-- Created with Inkscape (http://www.inkscape.org/) -->

<svg
   version="1.1"
   id="svg502"
   width="298.021"
   height="73.004997"
   viewBox="0 0 298.021 73.004997"
   sodipodi:docname="PayPal_2024_(Alt).svg"
   inkscape:version="1.2.2 (b0a8486541, 2022-12-01)"
   xmlns:inkscape="http://www.inkscape.org/namespaces/inkscape"
   xmlns:sodipodi="http://sodipodi.sourceforge.net/DTD/sodipodi-0.dtd"
   xmlns="http://www.w3.org/2000/svg"
   xmlns:svg="http://www.w3.org/2000/svg">
  <defs
     id="defs506" />
  <sodipodi:namedview
     id="namedview504"
     pagecolor="#ffffff"
     bordercolor="#000000"
     borderopacity="0.25"
     inkscape:showpageshadow="2"
     inkscape:pageopacity="0.0"
     inkscape:pagecheckerboard="0"
     inkscape:deskcolor="#d1d1d1"
     showgrid="false"
     inkscape:zoom="1.0721732"
     inkscape:cx="142.70083"
     inkscape:cy="50.831341"
     inkscape:window-width="1187"
     inkscape:window-height="582"
     inkscape:window-x="0"
     inkscape:window-y="0"
     inkscape:window-maximized="1"
     inkscape:current-layer="g4273" />
  <g
     inkscape:groupmode="layer"
     inkscape:label="Image"
     id="g508">
    <g
       id="g4273">
      <g
         id="g5010"
         transform="translate(-0.96004017,-0.9419926)">
        <g
           id="g264"
           transform="matrix(0.16357391,0,0,0.16223346,0.96004017,0.9419926)">
          <g
             id="Layer_1">
            <g
               id="g261">
              <path
                 class="cls-3"
                 d="m 318.58,103.5 c 0,55.74 -51.44,121.5 -129.27,121.5 H 114.34 L 110.66,248.22 93.17,360 H 0 L 56.05,0 H 207 c 50.83,0 90.82,28.33 105.55,67.7 4.2482,11.4467 6.2941,23.5933 6.03,35.8 z"
                 id="path255"
                 style="fill:#002991" />
              <path
                 class="cls-2"
                 d="M 372.28,207 C 362.0087,269.4081 307.9876,315.1528 244.74,315 H 192.68 L 171.01,450 H 78.34 l 14.83,-90 17.5,-111.78 3.67,-23.22 h 74.97 c 77.73,0 129.27,-65.76 129.27,-121.5 38.25,19.74 60.55,59.63 53.7,103.5 z"
                 id="path257"
                 style="fill:#60cdff" />
              <path
                 class="cls-1"
                 d="M 318.58,103.5 C 302.54,95.11 283.09,90 261.92,90 h -126.4 l -21.18,135 h 74.97 c 77.73,0 129.27,-65.76 129.27,-121.5 z"
                 id="path259"
                 style="fill:#008cff" />
            </g>
          </g>
        </g>
        <g
           id="g526"
           transform="matrix(0.1720298,0,0,0.15419042,74.31471,55.129442)"
           style="fill:#000000">
          <g
             id="Layer_1-3"
             style="fill:#000000">
            <path
               d="M 1305.9707,-350.27914 V 2.4571616 h -72.8842 V -350.27914 Z m -99.7156,119.04706 V 3.1017141 H 1141.469 V -17.097629 c -8.1957,8.8103518 -17.5624,15.4718373 -27.9046,20.1993431 -10.44,4.9423912 -21.7581,7.5210329 -33.8567,7.5210329 -15.2208,0 -29.3682,-3.1158565 -42.3449,-9.347569 -12.9767,-6.5540427 -24.2947,-15.471838 -33.8565,-26.64594 -9.65933,-11.28155 -17.26974,-24.389636 -22.92876,-39.324255 -5.3663,-15.256952 -8.00068,-31.695783 -8.00068,-49.209063 0,-17.51326 2.63438,-33.73719 8.00068,-48.6718 5.65902,-15.25696 13.26943,-28.57995 22.92876,-39.86147 9.539,-11.19571 21.062,-20.11823 33.8565,-26.21616 12.9768,-6.55407 27.1242,-9.88483 42.3449,-9.88483 12.0986,0 23.4167,2.47122 33.8567,7.52108 10.4398,4.72749 19.8065,11.38897 27.9046,20.19931 v -20.19931 h 64.7861 v -0.21492 z M 1091.416,-60.719509 c 13.2696,0 24.0996,-4.942391 32.5881,-15.042065 8.7812,-9.992227 13.1718,-22.777979 13.1718,-38.357266 0,-15.57929 -4.3906,-28.47247 -13.1718,-38.35727 -8.4886,-9.99223 -19.4163,-15.04207 -32.5881,-15.04207 -13.1717,0 -24.2947,4.94241 -33.0758,15.04207 -8.4888,9.99223 -12.6842,22.77798 -12.6842,38.35727 0,15.579287 4.2931,28.472482 12.6842,38.357266 8.7811,9.992231 19.8064,15.042065 33.0758,15.042065 z M 868.56814,-350.27914 c 19.22116,0 35.61278,3.00842 49.17491,8.91779 13.56212,5.90937 24.97773,14.18252 34.34428,24.8194 9.56177,10.95922 17.07461,23.42266 22.44091,37.49772 5.36631,14.07508 8.00067,29.22456 8.00067,45.44851 0,16.22396 -2.63436,31.37348 -8.00067,45.44856 -5.26699,13.94517 -12.8811,26.66795 -22.44091,37.49769 -9.26908,10.6369 -20.78226,18.91005 -34.34428,24.8194 -13.56203,5.90938 -29.95375,8.91781 -49.17491,8.91781 H 833.44321 V 2.9944852 H 759.29063 V -350.27914 Z m -10.63505,160.73508 c 9.95206,0 17.4649,-1.07443 22.92878,-3.33075 5.65901,-2.4712 10.34233,-5.69446 13.95239,-9.34754 7.61041,-7.84339 11.41561,-18.26539 11.41561,-31.37346 0,-13.10809 -3.8052,-23.53009 -11.41561,-31.37346 -3.70761,-3.7605 -8.29338,-6.76894 -13.95239,-8.9178 -5.36631,-2.47119 -12.97672,-3.76051 -22.92878,-3.76051 h -24.58744 v 88.10352 z m -371.83625,-41.68802 h 80.49464 l 54.63878,112.38574 h 0.8781 l 48.68705,-112.38574 h 74.54292 L 585.61757,122.04135 H 511.46505 L 584.34927,-39.553282 486.09714,-231.23208 Z m -14.34267,0 V 3.1017141 H 406.96819 V -17.097629 c -8.19582,8.8103518 -17.56247,15.4718373 -27.90481,20.1993431 -10.43991,4.9423912 -21.75793,7.5210329 -33.85653,7.5210329 -15.22081,0 -29.36835,-3.1158565 -42.34505,-9.347569 -12.97676,-6.5540427 -24.29479,-15.471838 -33.85658,-26.64594 -9.56179,-11.28155 -17.26975,-24.389636 -22.92878,-39.324255 -5.36629,-15.256952 -8.00067,-31.695783 -8.00067,-49.209063 0,-17.51326 2.63438,-33.73719 8.00067,-48.6718 5.65903,-15.25696 13.26942,-28.57995 22.92878,-39.86147 9.52081,-11.21903 21.04846,-20.14522 33.85658,-26.21616 12.9767,-6.55407 27.12424,-9.88483 42.34505,-9.88483 12.0986,0 23.41662,2.47122 33.85653,7.52108 10.43991,4.72749 19.80655,11.38897 27.90481,20.19931 v -20.19931 h 64.78598 v -0.21492 z M 356.91516,-60.719509 c 13.26942,0 24.0996,-4.942391 32.6857,-15.042065 8.78124,-9.992227 13.17184,-22.777979 13.17184,-38.357266 0,-15.57929 -4.3906,-28.47247 -13.17184,-38.35727 -8.48853,-9.99223 -19.41628,-15.04207 -32.6857,-15.04207 -13.26942,0 -24.29475,4.94241 -33.07597,15.04207 -8.48852,9.99223 -12.684,22.77798 -12.684,38.35727 0,15.579287 4.29304,28.472482 12.684,38.357266 8.78122,9.992231 19.80655,15.042065 33.07597,15.042065 z M 137.0917,-350.27914 c 19.22115,0 35.61277,3.00842 49.1749,8.91779 13.56213,5.90937 24.97773,14.18252 34.34436,24.8194 9.5618,10.95922 17.07464,23.42266 22.44094,37.49772 5.36631,14.07508 8.00068,29.22456 8.00068,45.44851 0,16.22396 -2.63437,31.37348 -8.00068,45.44856 -5.26698,13.94517 -12.88099,26.66795 -22.44094,37.49769 -9.26906,10.6369 -20.78223,18.91005 -34.34436,24.8194 -13.56213,5.90938 -29.95375,8.91781 -49.1749,8.91781 H 101.96677 V 2.9944852 H 27.81424 V -350.27914 Z m -10.53748,160.73508 c 9.95206,0 17.46489,-1.07443 22.92877,-3.33075 5.65902,-2.4712 10.34234,-5.69446 13.9524,-9.34754 7.61042,-7.84339 11.41562,-18.26539 11.41562,-31.37346 0,-13.10809 -3.8052,-23.53009 -11.41562,-31.37346 -3.70763,-3.7605 -8.29338,-6.76894 -13.9524,-8.9178 -5.36631,-2.47119 -12.97671,-3.76051 -22.92877,-3.76051 h -24.58745 v 88.10352 c 0,0 24.58745,0 24.58745,0 z"
               id="path523"
               style="fill:#000000;fill-opacity:1;stroke-width:1.02388" />
          </g>
        </g>
      </g>
    </g>
  </g>
</svg>
